<?xml version="1.0" encoding="UTF-8"?>
<svg id="Layer_2" xmlns="http://www.w3.org/2000/svg" viewBox="0 0 237.3 237.93">
  <defs>
    <style>
      .cls-1 {
        fill: #ffc757;
      }
    </style>
  </defs>
  <path class="cls-1" d="M225.6,81.34l9.1,3.91c.87.43,2.17,0,2.6-.87v-1.3l-8.67-21.31c-.43-.87-1.3-1.3-2.17-.87-.43,0-.87.43-.87.87l-3.9,9.13c-.43.87-.87,1.74-1.73,2.17l-19.51,11.74c-1.3-3.04-2.6-6.09-4.34-8.7h-.87c-18.21,3.91-48.12,11.74-54.19,26.53-7.8,19.57,14.74,23.05,16.04,50.46,1.3,26.1-34.68,45.24-52.02,52.63-.43,0-.87.43-1.3.43,3.03.43,6.07.87,9.1,1.3h1.3v1.3c0,2.61-.43,4.78-.87,7.39h0v.43c-.87,2.61-2.17,5.22-4.34,6.96l-2.17,1.74c-.43.87,0,1.74.87,2.17h21.68c.43,0,.87-.43,1.3-.87.43-.43.43-.87,0-1.3l-2.17-1.74c-2.17-1.74-3.9-4.35-4.77-6.96-.43-2.61-.87-5.22-1.3-7.83v-1.3h1.3c9.54-.43,18.64-2.61,27.31-6.09h0l5.64,22.18c.43.87,0,1.74,0,2.61l-3.9,9.13c-.43.87,0,2.17.87,2.61h1.3l21.24-8.7c.87-.43,1.3-1.3.87-2.17,0-.43-.43-.87-.87-.87l-9.1-3.91c-.87-.43-1.73-.87-2.17-1.74l-11.7-19.57c8.67-3.48,16.47-8.7,23.41-14.79l.87-.87.87.87c1.73,2.17,3.03,3.91,4.77,6.09,1.3,2.61,2.17,5.22,1.73,8.26l-.43,2.61c0,.43.43.87.87.87s1.3,0,1.3-.43l15.17-15.22c.43-.43.43-.87.43-1.3s-.43-.87-.87-.87l-2.6.43c-3.03.43-5.64-.43-8.24-1.74h0c-2.17-1.3-4.34-3.04-6.07-4.78l-.87-.87.87-.87c6.07-6.96,11.27-14.79,15.17-23.49l19.51,11.74c.87.43,1.3,1.3,1.73,2.17l3.9,9.13c.43.87,1.3,1.3,2.6.87.43,0,.87-.43.87-.87l8.67-20.88c.43-.87,0-2.17-.87-2.61h-1.3l-9.54,3.48c-.87.43-1.73.43-2.6,0l-22.54-5.65h0c3.47-8.7,5.64-17.83,6.07-26.97v-1.3h1.3c2.6,0,4.77.43,7.37.87h.43c2.6.87,5.2,2.17,6.94,4.35l1.73,2.17c.43.43.87.43,1.3,0s.87-.87.87-1.3v-21.31c0-.43-.43-.87-.87-1.3-.43-.43-.87-.43-1.3,0l-1.73,2.17c-1.73,2.17-4.34,3.91-6.94,4.78-2.6.43-5.2.87-7.8,1.3h-1.3v-1.3c-.43-9.13-2.6-18.7-6.07-27.4h0l22.11-5.65c1.73-.43,2.6-.43,3.47,0Z"/>
  <path class="cls-1" d="M122.85,90.04c16.47-18.27,49.85-20.44,68.06-20.01h.87c-2.17-3.04-4.34-6.09-6.94-9.13l-.87-.87.87-.87c2.17-1.74,3.9-3.04,6.5-4.78h.43c2.17-1.3,5.2-1.74,7.8-1.74l2.6.43c.43,0,.87-.43.87-.87s0-1.3-.43-1.3l-15.17-15.22c0-.87-.43-.87-.87-.87s-.87.43-.87.87l.43,2.61c.43,3.04-.43,5.65-1.73,8.26v.43c-1.3,2.17-3.03,3.91-4.77,6.09l-.87.87-1.3-.87c-6.94-6.09-14.74-11.31-23.41-15.22l11.7-19.57c.43-.87,1.3-1.3,2.17-1.74l9.1-3.91c.87-.43,1.3-1.3.87-2.61,0-.43-.43-.87-.87-.87L155.8.43c-.87-.43-2.17,0-2.6.87v1.3l3.9,9.13c.43.87.43,1.74,0,2.61l-5.64,22.62c-8.67-3.48-17.77-5.65-26.88-6.09h-1.3v-1.3c0-2.61.43-4.78.87-7.39h0v-.43c.87-2.61,2.17-5.22,4.34-6.96l2.6-1.74c.43-.87,0-1.74-.87-2.17h-21.68c-.87,0-1.3.87-1.73,1.3v.87l2.17,1.74c2.17,1.74,3.9,4.35,4.77,6.96.43,2.61.87,5.22,1.3,7.83v1.3h-1.3c-9.54.43-18.64,2.17-27.31,5.65h0l-5.64-22.18c-.43-.87,0-1.74,0-2.61l3.9-9.13c.43-.87,0-2.17-.87-2.61h-1.3l-21.24,8.7c-.87.43-1.3,1.74-.87,2.61,0,.43.43.87.87.87l9.1,3.91c.87.43,1.73.87,2.17,1.74l11.7,19.57c-8.67,3.48-16.47,8.7-23.41,14.79l-.87.87-1.73-.87c-1.73-2.17-3.03-3.91-4.77-6.09v-.43c-1.3-2.61-1.73-5.22-1.3-7.83l.43-3.04c0-.43-.43-.87-.87-.87s-1.3,0-1.3.43l-15.17,15.22c-.43.43-.43,1.74,0,2.17l.43.43,2.6-.43c3.03-.43,5.64.43,8.24,1.74h0c2.17,1.3,4.34,3.04,6.07,4.78l.87.87-.87.87c-6.07,6.96-11.27,14.79-15.17,23.49h0l-19.51-11.74c-.87-.43-1.3-1.3-1.73-2.17l-3.9-9.13c-.43-.87-1.3-1.3-2.6-.87-.43,0-.87.43-.87.87L.17,81.77c-.43.87,0,2.17.87,2.61h1.3l9.1-3.91c.87-.43,1.73-.43,2.6,0l22.11,5.65h0c-3.47,8.7-5.64,17.83-6.5,26.97v1.3h-1.3c-2.6,0-4.77-.43-7.37-.87h-.43c-2.6-.87-5.2-2.17-6.94-4.35l-.87-2.61c-.43-.43-.87-.43-1.3,0s-.87.87-.87,1.3v21.31c0,.43.43,1.3.87,1.3.43.43.87.43,1.3,0l1.73-2.17c1.73-2.17,4.34-3.91,6.94-4.78,2.6-.43,5.2-.87,7.8-1.3h1.3v1.3c.43,9.13,2.6,18.7,6.07,27.4h0l-22.11,5.65c-.87.43-1.73,0-2.6,0l-9.1-3.91c-.87-.43-2.17,0-2.6.87v1.3l8.67,21.31c.43.87,1.3,1.3,2.6.87.43,0,.87-.43.87-.87l3.9-9.13c.43-.87.87-1.74,1.73-2.17l19.51-11.74c3.03,6.96,6.94,13.48,11.27,19.57h.87c24.71-5.22,64.59-14.35,74.13-23.05,13.44-11.74-24.28-33.49-.87-59.59Z"/>
</svg>